Coordinates
version=1
nRows=25
nColumns=33
inDegrees=yes

Units are S.I. units (second, meters, Newtons, ...)
Angles are in degrees.

endheader
time	ground_thorax_rot_x	ground_thorax_rot_y	ground_thorax_rot_z	ground_thorax_tx	ground_thorax_ty	ground_thorax_tz	clav_prot_r	clav_elev_r	scapula_abduction_r	scapula_elevation_r	scapula_upward_rot_r	scapula_winging_r	shoulder_elv_r	plane_of_elev_r	axial_rot_r	elbow_flexion_r	pro_sup_r	wrist_flex_r	wrist_dev_r	clav_prot_l	clav_elev_l	scapula_abduction_l	scapula_elevation_l	scapula_upward_rot_l	scapula_winging_l	shoulder_elv_l	plane_of_elev_l	axial_rot_l	elbow_flexion_l	pro_sup_l	wrist_flex_l	wrist_dev_l	
7.2200	-31.776223	-25.732811	30.870328	-77.013167	843.615535	-50.653023	26.501191	-45.000000	39.167929	-45.000000	-45.000000	1693.652789	4755.550606	21.781340	-152.007671	2517.802610	154.433791	15.546711	14.862216	-0.874080	32.514674	-31.538563	-45.000000	-45.000000	3326.681011	-3882.005335	28.469079	57.164818	1070.802472	45.298550	12.769957	-23.818760	
7.2300	-31.688214	-25.884177	31.058864	-75.236397	843.668815	-50.649489	26.488316	-45.000000	39.220843	-45.000000	-45.000000	1693.789031	4755.524271	21.841005	-152.404658	2517.796901	154.535964	15.524415	14.918122	-0.793825	32.526808	-31.646288	-45.000000	-45.000000	3326.683107	-3881.921698	28.540893	57.621755	1070.777117	45.149926	12.951047	-23.676464	
7.2400	-31.582253	-26.049945	31.272682	-73.410640	843.700828	-50.630924	26.489759	-45.000000	39.281157	-45.000000	-45.000000	1693.913894	4755.498995	21.910122	-152.788898	2517.797659	154.655471	15.495712	14.976873	-0.742331	32.531610	-31.735868	-45.000000	-45.000000	3326.675819	-3881.833278	28.609970	58.085922	1070.751536	45.000269	13.135260	-23.520581	
7.2500	-31.455351	-26.231948	31.516182	-71.535671	843.708729	-50.596521	26.523737	-45.000000	39.356209	-45.000000	-45.000000	1694.016849	4755.471829	21.995027	-153.147036	2517.805479	154.786336	15.458664	15.038091	-0.736310	32.525062	-31.802704	-45.000000	-45.000000	3326.656569	-3881.737521	28.676038	58.558831	1070.725020	44.859230	13.318677	-23.356855	
7.2600	-31.314011	-26.422716	31.780413	-69.611016	843.689323	-50.545450	26.563660	-45.000000	39.436683	-45.000000	-45.000000	1694.115209	4755.446063	22.083222	-153.497398	2517.818004	154.921209	15.411871	15.103356	-0.747574	32.513544	-31.857442	-45.000000	-45.000000	3326.629130	-3881.642096	28.738396	59.027188	1070.702143	44.736867	13.495947	-23.186927	
7.2700	-31.162858	-26.618139	32.060662	-67.636251	843.639099	-50.477067	26.609101	-45.000000	39.520586	-45.000000	-45.000000	1694.211052	4755.418566	22.174188	-153.839382	2517.832523	155.054941	15.355708	15.171774	-0.768243	32.498518	-31.909392	-45.000000	-45.000000	3326.597380	-3881.549878	28.795881	59.488326	1070.682252	44.640388	13.661915	-23.016077	
7.2800	-31.005970	-26.813898	32.352221	-65.611438	843.554376	-50.391093	26.635126	-45.000000	39.600807	-45.000000	-45.000000	1694.319981	4755.392855	22.254068	-154.189927	2517.845323	155.183538	15.289350	15.245447	-0.774372	32.485799	-31.968705	-45.000000	-45.000000	3326.564215	-3881.468533	28.844772	59.931843	1070.669242	44.575192	13.812957	-22.845588	
7.2900	-30.846356	-27.007666	32.653636	-63.537332	843.431560	-50.287851	26.648295	-45.000000	39.674788	-45.000000	-45.000000	1694.441378	4755.365309	22.323663	-154.543089	2517.855994	155.305673	15.213207	15.322773	-0.763173	32.476134	-32.035181	-45.000000	-45.000000	3326.530041	-3881.398817	28.888525	60.356249	1070.660432	44.542166	13.947271	-22.678721	
7.3000	-30.688398	-27.196866	32.958358	-61.415480	843.267389	-50.168314	26.640483	-45.000000	39.740986	-45.000000	-45.000000	1694.581008	4755.335022	22.378954	-154.902282	2517.863412	155.421823	15.127736	15.403855	-0.723411	32.471981	-32.110003	-45.000000	-45.000000	3326.496850	-3881.339359	28.929524	60.756592	1070.651838	44.540387	14.064797	-22.513012	
7.3100	-30.532261	-27.382594	33.266551	-59.248006	843.059161	-50.034045	26.623511	-45.000000	39.798986	-45.000000	-45.000000	1694.733402	4755.299831	22.427271	-155.258675	2517.868406	155.535041	15.033543	15.486724	-0.662714	32.471632	-32.188925	-45.000000	-45.000000	3326.464918	-3881.288374	28.970139	61.134137	1070.640189	44.563899	14.166762	-22.348724	
7.3200	-30.381610	-27.561234	33.571927	-57.037547	842.804855	-49.886915	26.587134	-45.000000	39.847776	-45.000000	-45.000000	1694.905514	4755.262135	22.461851	-155.617437	2517.870051	155.650222	14.931789	15.571239	-0.570000	32.478457	-32.274546	-45.000000	-45.000000	3326.433527	-3881.247278	29.011525	61.485876	1070.624066	44.606777	14.254444	-22.182192	
7.3300	-30.234124	-27.734470	33.878672	-54.786891	842.503253	-49.728734	26.539807	-45.000000	39.885217	-45.000000	-45.000000	1695.093514	4755.222918	22.486050	-155.971959	2517.869945	155.774686	14.823544	15.654944	-0.451900	32.491146	-32.360523	-45.000000	-45.000000	3326.400849	-3881.216006	29.055491	61.812152	1070.604288	44.660800	14.329984	-22.012875	
7.3400	-30.088406	-27.902237	34.188765	-52.498698	842.153839	-49.561123	26.481571	-45.000000	39.915179	-45.000000	-45.000000	1695.293402	4755.183047	22.499680	-156.320011	2517.869903	155.916482	14.709493	15.736828	-0.315207	32.507774	-32.447604	-45.000000	-45.000000	3326.365236	-3881.192144	29.099963	62.115503	1070.581015	44.719725	14.395601	-21.839562	
7.3500	-29.929738	-28.081352	34.522934	-50.174959	841.756695	-49.385563	26.445926	-45.000000	39.948092	-45.000000	-45.000000	1695.481122	4755.139360	22.519470	-156.637943	2517.871856	156.082894	14.590905	15.814696	-0.202597	32.517347	-32.514773	-45.000000	-45.000000	3326.323756	-3881.168315	29.142455	62.400495	1070.554751	44.777950	14.454871	-21.664777	
7.3600	-29.756882	-28.272461	34.883710	-47.816847	841.312170	-49.203829	26.427029	-45.000000	39.984978	-45.000000	-45.000000	1695.655259	4755.092641	22.543548	-156.927258	2517.876460	156.277605	14.469522	15.887444	-0.116355	32.518850	-32.562821	-45.000000	-45.000000	3326.275782	-3881.145292	29.180708	62.667880	1070.528870	44.832347	14.509071	-21.489138	
7.3700	-29.565573	-28.481078	35.278179	-45.424683	840.820871	-49.017999	26.433518	-45.000000	40.027232	-45.000000	-45.000000	1695.809412	4755.040784	22.576567	-157.182775	2517.884424	156.505138	14.346294	15.954260	-0.069783	32.508527	-32.586065	-45.000000	-45.000000	3326.220808	-3881.121568	29.211157	62.919365	1070.505591	44.881010	14.559703	-21.314682	
7.3800	-29.357513	-28.703029	35.702045	-42.997968	840.283407	-48.830621	26.459192	-45.000000	40.076349	-45.000000	-45.000000	1695.944997	4754.982574	22.617386	-157.406545	2517.896997	156.767990	14.223626	16.013952	-0.057115	32.487032	-32.589713	-45.000000	-45.000000	3326.160571	-3881.099107	29.234639	63.155403	1070.483622	44.924409	14.607285	-21.141738	
7.3900	-29.126827	-28.944356	36.159468	-40.535888	839.700551	-48.644161	26.510123	-45.000000	40.139865	-45.000000	-45.000000	1696.058959	4754.917294	22.667858	-157.594149	2517.912205	157.068400	14.102265	16.067334	-0.087579	32.451715	-32.568651	-45.000000	-45.000000	3326.093822	-3881.077397	29.245949	63.375442	1070.460792	44.964341	14.652945	-20.971108	
7.4000	-28.885715	-29.189762	36.633676	-38.037787	839.073151	-48.460687	26.563173	-45.000000	40.206840	-45.000000	-45.000000	1696.169303	4754.848126	22.715010	-157.762865	2517.928434	157.406923	13.985492	16.113234	-0.126400	32.412651	-32.537288	-45.000000	-45.000000	3326.022552	-3881.061795	29.251288	63.571349	1070.436409	45.003174	14.694774	-20.799952	
7.4100	-28.632765	-29.438207	37.122814	-35.503757	838.402410	-48.281094	26.611879	-45.000000	40.280689	-45.000000	-45.000000	1696.282696	4754.777712	22.753390	-157.918870	2517.944096	157.787067	13.870952	16.154198	-0.171031	32.370961	-32.500770	-45.000000	-45.000000	3325.943769	-3881.054957	29.241602	63.744619	1070.410180	45.042558	14.732953	-20.628133	
7.4200	-28.377354	-29.679714	37.617019	-32.934739	837.689609	-48.105351	26.658097	-45.000000	40.349690	-45.000000	-45.000000	1696.401782	4754.705782	22.784714	-158.065627	2517.961175	158.210787	13.762118	16.186749	-0.207111	32.331278	-32.462433	-45.000000	-45.000000	3325.861783	-3881.055498	29.230397	63.892145	1070.381774	45.083739	14.765780	-20.454201	
7.4300	-28.116542	-29.916934	38.117003	-30.332596	836.936034	-47.932694	26.700483	-45.000000	40.418005	-45.000000	-45.000000	1696.527400	4754.632059	22.808490	-158.204102	2517.979843	158.679779	13.656963	16.211958	-0.237939	32.291996	-32.420340	-45.000000	-45.000000	3325.774967	-3881.063897	29.212290	64.018855	1070.352342	45.126734	14.792928	-20.278243	
7.4400	-27.867421	-30.133887	38.604291	-27.699741	836.142585	-47.762328	26.731629	-45.000000	40.464153	-45.000000	-45.000000	1696.667180	4754.556871	22.824097	-158.346451	2517.999954	159.194731	13.561942	16.224973	-0.234719	32.261387	-32.383953	-45.000000	-45.000000	3325.690871	-3881.079717	29.206225	64.121553	1070.321963	45.171374	14.811679	-20.097391	
7.4500	-27.626447	-30.331391	39.078176	-25.039172	835.309838	-47.593613	26.741359	-45.000000	40.493313	-45.000000	-45.000000	1696.825033	4754.482233	22.828624	-158.499141	2518.022926	159.757639	13.474874	16.227283	-0.199988	32.237687	-32.356178	-45.000000	-45.000000	3325.606010	-3881.106566	29.201919	64.211188	1070.292679	45.216522	14.821908	-19.912261	
7.4600	-27.396158	-30.508680	39.535995	-22.353901	834.437811	-47.426357	26.744324	-45.000000	40.500245	-45.000000	-45.000000	1696.992774	4754.406467	22.831164	-158.654024	2518.048991	160.366828	13.400654	16.215675	-0.136850	32.220207	-32.330522	-45.000000	-45.000000	3325.524145	-3881.139286	29.211656	64.288785	1070.261088	45.262677	14.823419	-19.722430	
